<?xml version="1.0" encoding="UTF-8"?>
<svg width="184.62mm" height="291.08mm" version="1.1" viewBox="0 0 184.62 291.08" xml:space="preserve" xmlns="http://www.w3.org/2000/svg"><g transform="translate(-11.926 -3.1476)"><path d="m83.318 294.1c-26.144-1.983-53.575-17.517-61.15-43.943-4.8757-11.122 2.9601-26.84 16.27-24.609 12.634 7.7199 2.1118-11.651 3.7252-18.509-1.203-14.766-0.1328-29.59 2.1291-44.187-7.1106-10.3-12.74-22.587-11.519-35.536 0.58854-25.258 21.095-45.976 44.289-52.701 4.5934-1.9489 15.696-2.7722 3.6462-5.2533-7.89-5.2735-20.86 1.7957-26.449-2.6204 7.5872-10.408-7.3131-2.2668-11.381-0.06377-4.8554 4.5982-14.925 6.7719-8.9942-3.1464-2.1164-2.5436-13.641 5.7637-20.14 6.6548-7.1696-5.2935 8.7818-18.449 14.662-22.823 19.105-12.775 46.223-10.095 63.041 5.2917-1.2226-7.4967-23.37-15.615-7.8383-18.201-3.1701-3.9451-13.858-7.2291-20.547-9.0508-4.4657-6.6349 13.698-5.9432 0.73593-9.4727-4.5518-3.2149-15.954-4.9738-14.283-10.9 18.171-5.2143 39.259 0.65297 51.984 14.72 8.929 9.4362 12.015 22.895 12.548 35.551 14.716-19.568 44.517-25.454 65.228-12.212 6.3006 4.74 20.723 14.32 16.521 22.001-6.1978-0.02027-18.653-8.5824-20.992-5.8804 6.6178 13.653-8.8091 3.1627-14.675 0.58712-5.6979-2.3263-9.706-3.2723-4.8959 3.8376-4.0427 2.842-17.664-1.7019-17.575 1.3567 21.627-0.81892 44.017 11.645 51.307 32.699 3.2524 10.331 5.5032 24.417-0.52002 33.282-6.6425-4.755-7.7269-14.947-12.343-21.611-0.70466 8.888-8.9597 9.145-8.7759-0.25853-1.9986-4.9918-7.3106-22.152-9.5122-9.2523-6.4885-1.6128-15.763-16.318-21.082-14.511 18.428 14.35 23.155 42.398 10.54 62.057-2.4786 7.0799-19.102 21.467-14.469 4.8982 0.64742-6.8899 7.5811-22.148-3.8868-12.884-4.9751-5.8279 4.9652-18.202 1.2701-25.123-10.769 11.428-5.8144-12.536-12.261-17.021-4.5112-9.1327-15.235-19.723-21.252-5.2769-12.276 15.373-18.988 34.299-23.72 53.19 13.483 13.773 33.206 17.944 50.618 24.757 19.365 7.2794 40.193 16.926 50.784 35.86 14.309 24.873 4.0158 58.65-19.629 73.728-9.2705 6.3578-19.882 11.596-31.115 12.696-2.0456-6.5435 13.22-5.9786 18.216-10.303 18.933-8.7197 33.858-26.988 34.56-48.308 1.024-17.858-8.7932-34.982-23.712-44.428-18.495-12.982-41.668-17.756-61.693-26.69-15.556-6.5649-32.404-19.5-32.392-38.32-0.87583-24.257 21.93-45.085 45.402-45.541 8.793 2.7623 14.542 10.76 19.152 18.659 2.9114 3.2139 3.4658 19.906 6.5263 8.0284 6.1148-9.4804 6.5128 11.783 5.2511 16.275-1.544 5.5026-2.7225 13.339 2.5403 4.9181 8.8336-8.4438 2.3598 12.063 1.7317 16.369-1.4639 4.4378-2.503 13.481 2.0447 5.2476 13.029-16.839 11.201-43.273-5.0882-57.352-4.719-5.9226-13.799-7.2304-18.06-12.772 4.6529-5.2747 15.267 1.248 21.441 2.8086 6.4973 1.1203 19.398 18.878 14.203 3.8152 7.3814-4.2013 13.118 13.35 16.675 19.695 2.1156 7.7814 2.2616-16.645 7.4332-3.3152 2.4733 4.3221 7.1407 21.295 9.5591 18.117 2.5-22.745-14.712-45.143-37.33-48.54-11.345-2.9278-23.026 0.22458-34.114 1.2411 0.21165-7.8361 13.613-9.6217 20.348-11.734 4.7232-1.0894 16.578 1.0246 6.8031-3.9527-5.8046-9.5246 17.208-1.4272 22.532 1.2042 10.96 6.1733-9.0363-10.243 2.5073-7.5053 6.7931 2.9501 15.394 7.6273 21.476 8.2452-13.303-18.107-40.628-23.445-59.438-11.007-8.1886 3.9736-12.714 13.472-19.405 18.119-3.39-8.8067 0.17733-21.862-5.5184-31.351-7.7019-17.764-28.331-28.525-47.308-25.879 7.3753 4.1535 15.229 7.2498 23.056 10.553 4.0297 7.3347-18.105 2.1779-3.8601 6.9427 6.8715 3.3194 14.722 6.5768 19.168 12.926-2.8868 4.9373-16.021-3.2552-6.0198 5.1647 5.521 6.4944 11.969 15.235 11.18 23.784-8.792-3.6739-14.717-16.129-25.467-19.278-19.345-9.6441-45.669-3.1319-57.226 15.449 8.4132-0.64402 19.039-12.672 25.394-7.777-4.3359 5.4466-6.7283 9.7567 1.4014 4.602 6.6772-1.7889 18.523-8.8516 23.063-2.8943-4.9678 3.438-10.353 7.2267-0.42945 5.4466 9.7989 0.87074 23.67 2.8718 28.706 11.453-9.6943 3.0928-21.413 3.45-30.55 9.5348-18.558 9.6656-32.014 30.358-28.787 51.807 2.475 22.635 22.851 37.902 42.331 46.097 21.041 9.1564 45.252 13.894 62.366 30.11 17.489 18.43 11.232 49.779-7.3331 65.08-13.577 13.159-33.104 18.16-51.63 17.139zm11.546-4.6364c11.543-1.1963 23.182-4.6272 32.411-11.816-20.083 2.6819-39.233-9.5035-49.279-26.346-13.779-21.197-16.832-47.515-15.392-72.319-4.4911-3.2738-16.292-18.218-15.206-5.0532-3.2783 29.024-0.31184 59.988 14.3 85.713 6.7819 11.973 17.708 21.52 31.066 25.22-0.98644 7.7426-17.005-2.3875-21.208-6.3004-12.728-10.585-19.453-26.451-24.777-41.767-7.4497-14.994-27.862-1.8614-20.459 11.912 8.5406 28.346 40.637 43.049 68.544 40.757zm32.917-16.774c11.528-1.0128 16.024-13.778 19.048-23.278 4.561-15.392-1.9209-33.009-15.915-41.134-19.875-12.162-43.216-16.801-63.848-27.504-1.9699 29.644 4.242 63.11 28.089 83.018 9.0727 7.5486 20.908 11.067 32.627 8.8977zm-58.172-133.05c5.2559-20.216 13.846-39.954 27.679-55.694-21.149 3.9007-39.621 26.567-32.818 48.484 0.8115 1.4568 3.5431 9.9807 5.139 7.2099z" fill="#5046e5"/></g></svg>
